<svg width="22" height="16" viewBox="0 0 22 16" fill="none" xmlns="http://www.w3.org/2000/svg">
<path d="M19.2752 2.02667C17.7615 0.746667 15.945 0.106667 14.0275 0L13.7248 0.32C15.4404 0.746667 16.9541 1.6 18.367 2.77333C16.6514 1.81333 14.7339 1.17333 12.7156 0.96C12.1101 0.853333 11.6055 0.853333 11 0.853333C10.3945 0.853333 9.88991 0.853333 9.2844 0.96C7.26606 1.17333 5.34862 1.81333 3.63303 2.77333C5.04587 1.6 6.55963 0.746667 8.27523 0.32L7.97248 0C6.05505 0.106667 4.23853 0.746667 2.72477 2.02667C1.00917 5.44 0.100917 9.28 0 13.2267C1.51376 14.9333 3.63303 16 5.85321 16C5.85321 16 6.55963 15.1467 7.06422 14.4C5.75229 14.08 4.54128 13.3333 3.73395 12.16C4.44037 12.5867 5.14679 13.0133 5.85321 13.3333C6.76147 13.76 7.66972 13.9733 8.57798 14.1867C9.38532 14.2933 10.1927 14.4 11 14.4C11.8073 14.4 12.6147 14.2933 13.422 14.1867C14.3303 13.9733 15.2385 13.76 16.1468 13.3333C16.8532 13.0133 17.5596 12.5867 18.2661 12.16C17.4587 13.3333 16.2477 14.08 14.9358 14.4C15.4404 15.1467 16.1468 16 16.1468 16C18.367 16 20.4862 14.9333 22 13.2267C21.8991 9.28 20.9908 5.44 19.2752 2.02667ZM7.66972 11.3067C6.66055 11.3067 5.75229 10.3467 5.75229 9.17333C5.75229 8 6.66055 7.04 7.66972 7.04C8.6789 7.04 9.58716 8 9.58716 9.17333C9.58716 10.3467 8.6789 11.3067 7.66972 11.3067ZM14.3303 11.3067C13.3211 11.3067 12.4128 10.3467 12.4128 9.17333C12.4128 8 13.3211 7.04 14.3303 7.04C15.3394 7.04 16.2477 8 16.2477 9.17333C16.2477 10.3467 15.3394 11.3067 14.3303 11.3067Z" fill="#F5F8FB"/>
</svg>
