<svg width="25" height="24" viewBox="0 0 25 24" fill="none" xmlns="http://www.w3.org/2000/svg">
<path d="M20.3642 2.76904H4.63221C3.8786 2.76904 3.26923 3.364 3.26923 4.09957V19.8965C3.26923 20.632 3.8786 21.2306 4.63221 21.2306H20.3642C21.1178 21.2306 21.7308 20.632 21.7308 19.9001V4.09957C21.7308 3.364 21.1178 2.76904 20.3642 2.76904ZM8.74639 18.501H6.00601V9.68851H8.74639V18.501ZM7.3762 8.48779C6.49639 8.48779 5.78605 7.77746 5.78605 6.90126C5.78605 6.02505 6.49639 5.31472 7.3762 5.31472C8.2524 5.31472 8.96274 6.02505 8.96274 6.90126C8.96274 7.77385 8.2524 8.48779 7.3762 8.48779ZM19.0012 18.501H16.2644V14.2174C16.2644 13.1969 16.2464 11.8808 14.8401 11.8808C13.4159 11.8808 13.1995 12.995 13.1995 14.1452V18.501H10.4663V9.68851H13.0913V10.8928H13.1274C13.4916 10.2005 14.3858 9.46856 15.7163 9.46856C18.4892 9.46856 19.0012 11.2931 19.0012 13.6657V18.501Z" fill="#F5F8FB"/>
</svg>
