<svg>
  <symbol fill="none" xmlns="http://www.w3.org/2000/svg" viewBox="0 0 16 16" id="calendar">
    <path d="M14 6.66659H2M10.6667 1.33325V3.99992M5.33333 1.33325V3.99992M5.2 14.6666H10.8C11.9201 14.6666 12.4802 14.6666 12.908 14.4486C13.2843 14.2569 13.5903 13.9509 13.782 13.5746C14 13.1467 14 12.5867 14 11.4666V5.86659C14 4.74648 14 4.18643 13.782 3.7586C13.5903 3.38228 13.2843 3.07632 12.908 2.88457C12.4802 2.66659 11.9201 2.66659 10.8 2.66659H5.2C4.0799 2.66659 3.51984 2.66659 3.09202 2.88457C2.71569 3.07632 2.40973 3.38228 2.21799 3.7586C2 4.18643 2 4.74648 2 5.86659V11.4666C2 12.5867 2 13.1467 2.21799 13.5746C2.40973 13.9509 2.71569 14.2569 3.09202 14.4486C3.51984 14.6666 4.0799 14.6666 5.2 14.6666Z" stroke="#0265DC" stroke-width="2" stroke-linecap="round" stroke-linejoin="round"></path>
  </symbol>
  <symbol fill="none" xmlns="http://www.w3.org/2000/svg" viewBox="0 0 24 24" id="close">
    <path d="M18 6L6 18M6 6L18 18" stroke="#F5F8FB" stroke-width="2" stroke-linecap="round" stroke-linejoin="round"/>
  </symbol>
  <symbol fill="none" xmlns="http://www.w3.org/2000/svg" viewBox="0 0 22 16" id="discord">
    <path d="M19.2752 2.02667C17.7615 0.746667 15.945 0.106667 14.0275 0L13.7248 0.32C15.4404 0.746667 16.9541 1.6 18.367 2.77333C16.6514 1.81333 14.7339 1.17333 12.7156 0.96C12.1101 0.853333 11.6055 0.853333 11 0.853333C10.3945 0.853333 9.88991 0.853333 9.2844 0.96C7.26606 1.17333 5.34862 1.81333 3.63303 2.77333C5.04587 1.6 6.55963 0.746667 8.27523 0.32L7.97248 0C6.05505 0.106667 4.23853 0.746667 2.72477 2.02667C1.00917 5.44 0.100917 9.28 0 13.2267C1.51376 14.9333 3.63303 16 5.85321 16C5.85321 16 6.55963 15.1467 7.06422 14.4C5.75229 14.08 4.54128 13.3333 3.73395 12.16C4.44037 12.5867 5.14679 13.0133 5.85321 13.3333C6.76147 13.76 7.66972 13.9733 8.57798 14.1867C9.38532 14.2933 10.1927 14.4 11 14.4C11.8073 14.4 12.6147 14.2933 13.422 14.1867C14.3303 13.9733 15.2385 13.76 16.1468 13.3333C16.8532 13.0133 17.5596 12.5867 18.2661 12.16C17.4587 13.3333 16.2477 14.08 14.9358 14.4C15.4404 15.1467 16.1468 16 16.1468 16C18.367 16 20.4862 14.9333 22 13.2267C21.8991 9.28 20.9908 5.44 19.2752 2.02667ZM7.66972 11.3067C6.66055 11.3067 5.75229 10.3467 5.75229 9.17333C5.75229 8 6.66055 7.04 7.66972 7.04C8.6789 7.04 9.58716 8 9.58716 9.17333C9.58716 10.3467 8.6789 11.3067 7.66972 11.3067ZM14.3303 11.3067C13.3211 11.3067 12.4128 10.3467 12.4128 9.17333C12.4128 8 13.3211 7.04 14.3303 7.04C15.3394 7.04 16.2477 8 16.2477 9.17333C16.2477 10.3467 15.3394 11.3067 14.3303 11.3067Z" fill="#F5F8FB"></path>
  </symbol>
  <symbol fill="none" xmlns="http://www.w3.org/2000/svg" viewBox="0 0 25 24" id="facebook">
    <path d="M2.50119 12.0612C2.50235 17.0108 6.07959 21.2253 10.9382 22.001V14.9689H8.40119V12.0612H10.9412V9.84761C10.8276 8.79873 11.1837 7.75339 11.9128 6.99509C12.6419 6.23679 13.6685 5.84413 14.7142 5.9236C15.4647 5.9358 16.2134 6.00306 16.9542 6.12484V8.59897H15.6902C15.255 8.54163 14.8175 8.68623 14.501 8.99204C14.1844 9.29786 14.023 9.73179 14.0622 10.1716V12.0612H16.8332L16.3902 14.97H14.0622V22.001C19.3167 21.1655 23.0013 16.3371 22.4467 11.0138C21.8921 5.69055 17.2925 1.73591 11.98 2.01487C6.66755 2.29382 2.50203 6.70871 2.50119 12.0612Z" fill="#F5F8FB"></path>
  </symbol>
  <symbol fill="none" xmlns="http://www.w3.org/2000/svg" viewBox="0 0 22 20" id="file">
    <path d="M12 5L10.8845 2.76892C10.5634 2.1268 10.4029 1.80573 10.1634 1.57116C9.95158 1.36373 9.69632 1.20597 9.41607 1.10931C9.09916 1 8.74021 1 8.02229 1H4.2C3.0799 1 2.51984 1 2.09202 1.21799C1.71569 1.40973 1.40973 1.71569 1.21799 2.09202C1 2.51984 1 3.0799 1 4.2V5M1 5H16.2C17.8802 5 18.7202 5 19.362 5.32698C19.9265 5.6146 20.3854 6.07354 20.673 6.63803C21 7.27976 21 8.11984 21 9.8V14.2C21 15.8802 21 16.7202 20.673 17.362C20.3854 17.9265 19.9265 18.3854 19.362 18.673C18.7202 19 17.8802 19 16.2 19H5.8C4.11984 19 3.27976 19 2.63803 18.673C2.07354 18.3854 1.6146 17.9265 1.32698 17.362C1 16.7202 1 15.8802 1 14.2V5Z" stroke="#F8F7FF" stroke-width="2" stroke-linecap="round" stroke-linejoin="round"></path>
  </symbol>
  <symbol fill="none" xmlns="http://www.w3.org/2000/svg" viewBox="0 0 25 24" id="instagram">
    <path fill-rule="evenodd" clip-rule="evenodd" d="M8.6944 2.82443C9.67874 2.77911 9.99258 2.76904 12.5 2.76904C15.0074 2.76904 15.3213 2.77995 16.3048 2.82443C17.2882 2.8689 17.9596 3.02583 18.547 3.25324C19.1621 3.48569 19.7201 3.84904 20.1817 4.31897C20.6516 4.77967 21.0141 5.33688 21.2457 5.95282C21.474 6.54023 21.6301 7.21156 21.6754 8.19338C21.7207 9.17939 21.7308 9.49324 21.7308 11.9998C21.7308 14.5072 21.7199 14.8211 21.6754 15.8054C21.6309 16.7872 21.474 17.4586 21.2457 18.046C21.0141 18.662 20.651 19.2201 20.1817 19.6815C19.7201 20.1514 19.1621 20.5139 18.547 20.7456C17.9596 20.9738 17.2882 21.1299 16.3064 21.1752C15.3213 21.2205 15.0074 21.2306 12.5 21.2306C9.99258 21.2306 9.67874 21.2197 8.6944 21.1752C7.71258 21.1307 7.04125 20.9738 6.45384 20.7456C5.83783 20.5139 5.27971 20.1508 4.81832 19.6815C4.34871 19.2205 3.98529 18.6627 3.75342 18.0468C3.52601 17.4594 3.36993 16.7881 3.32461 15.8062C3.2793 14.8202 3.26923 14.5064 3.26923 11.9998C3.26923 9.4924 3.28014 9.17855 3.32461 8.19506C3.36909 7.21156 3.52601 6.54023 3.75342 5.95282C3.98564 5.33694 4.34933 4.7791 4.81916 4.31813C5.27989 3.84862 5.83745 3.48522 6.453 3.25324C7.04042 3.02583 7.71174 2.86974 8.69356 2.82443H8.6944ZM16.2301 4.48597C15.2566 4.44149 14.9646 4.43226 12.5 4.43226C10.0354 4.43226 9.74335 4.44149 8.76993 4.48597C7.86951 4.52709 7.38111 4.67729 7.05552 4.80401C6.62503 4.97184 6.31706 5.17072 5.99398 5.4938C5.68773 5.79174 5.45203 6.15446 5.30419 6.55534C5.17748 6.88093 5.02727 7.36932 4.98615 8.26974C4.94167 9.24317 4.93244 9.5352 4.93244 11.9998C4.93244 14.4644 4.94167 14.7565 4.98615 15.7299C5.02727 16.6303 5.17748 17.1187 5.30419 17.4443C5.45188 17.8446 5.68769 18.2079 5.99398 18.5058C6.29188 18.8121 6.65524 19.0479 7.05552 19.1956C7.38111 19.3223 7.86951 19.4725 8.76993 19.5137C9.74335 19.5581 10.0345 19.5674 12.5 19.5674C14.9655 19.5674 15.2566 19.5581 16.2301 19.5137C17.1305 19.4725 17.6189 19.3223 17.9445 19.1956C18.375 19.0278 18.6829 18.8289 19.006 18.5058C19.3123 18.2079 19.5481 17.8446 19.6958 17.4443C19.8225 17.1187 19.9727 16.6303 20.0138 15.7299C20.0583 14.7565 20.0676 14.4644 20.0676 11.9998C20.0676 9.5352 20.0583 9.24317 20.0138 8.26974C19.9727 7.36932 19.8225 6.88093 19.6958 6.55534C19.528 6.12485 19.3291 5.81688 19.006 5.4938C18.708 5.18756 18.3453 4.95188 17.9445 4.80401C17.6189 4.67729 17.1305 4.52709 16.2301 4.48597ZM11.321 14.8454C11.9794 15.1195 12.7126 15.1565 13.3953 14.9501C14.078 14.7436 14.6679 14.3066 15.0641 13.7136C15.4604 13.1206 15.6385 12.4084 15.568 11.6986C15.4975 10.9889 15.1828 10.3257 14.6776 9.82219C14.3556 9.50035 13.9662 9.25392 13.5375 9.10064C13.1088 8.94735 12.6514 8.89102 12.1983 8.93571C11.7452 8.9804 11.3077 9.125 10.9172 9.35908C10.5267 9.59317 10.1929 9.91093 9.93997 10.2895C9.68701 10.668 9.52113 11.098 9.45428 11.5483C9.38742 11.9987 9.42124 12.4582 9.55332 12.894C9.68539 13.3297 9.91243 13.7307 10.2181 14.0681C10.5237 14.4055 10.9004 14.671 11.321 14.8454ZM9.14503 8.64485C9.58561 8.20427 10.1087 7.85478 10.6843 7.61634C11.2599 7.3779 11.8769 7.25518 12.5 7.25518C13.1231 7.25518 13.74 7.3779 14.3157 7.61634C14.8913 7.85478 15.4144 8.20427 15.855 8.64485C16.2955 9.08543 16.645 9.60847 16.8835 10.1841C17.1219 10.7598 17.2446 11.3767 17.2446 11.9998C17.2446 12.6229 17.1219 13.2399 16.8835 13.8155C16.645 14.3912 16.2955 14.9142 15.855 15.3548C14.9652 16.2446 13.7584 16.7445 12.5 16.7445C11.2416 16.7445 10.0348 16.2446 9.14503 15.3548C8.25524 14.465 7.75536 13.2582 7.75536 11.9998C7.75536 10.7415 8.25524 9.53464 9.14503 8.64485ZM18.2969 7.96177C18.4061 7.85878 18.4935 7.73493 18.554 7.59755C18.6144 7.46018 18.6467 7.31207 18.6489 7.16199C18.6511 7.01192 18.6231 6.86293 18.5667 6.72385C18.5103 6.58477 18.4265 6.45842 18.3204 6.35229C18.2143 6.24616 18.0879 6.16241 17.9488 6.10598C17.8097 6.04956 17.6608 6.02161 17.5107 6.0238C17.3606 6.02599 17.2125 6.05826 17.0751 6.11872C16.9377 6.17917 16.8139 6.26658 16.7109 6.37576C16.5106 6.58809 16.4009 6.87012 16.4052 7.16199C16.4095 7.45386 16.5273 7.73258 16.7337 7.93898C16.9401 8.14539 17.2188 8.26322 17.5107 8.26748C17.8026 8.27173 18.0846 8.16207 18.2969 7.96177Z" fill="#F5F8FB"></path>
  </symbol>
  <symbol fill="none" xmlns="http://www.w3.org/2000/svg" viewBox="0 0 8 14" id="left-arrow">
    <path d="M7 13L1 7L7 1" stroke="#F5F8FB" stroke-width="2" stroke-linecap="round" stroke-linejoin="round"></path>
  </symbol>
  <symbol fill="none" xmlns="http://www.w3.org/2000/svg" viewBox="0 0 23 20" id="like">
    <path fill-rule="evenodd" clip-rule="evenodd" d="M11.4932 3.13581C9.4938 0.7984 6.15975 0.169643 3.65469 2.31001C1.14964 4.45038 0.796968 8.02898 2.7642 10.5604C4.39982 12.6651 9.34977 17.1041 10.9721 18.5408C11.1536 18.7016 11.2444 18.7819 11.3502 18.8135C11.4426 18.8411 11.5437 18.8411 11.6361 18.8135C11.7419 18.7819 11.8327 18.7016 12.0142 18.5408C13.6365 17.1041 18.5865 12.6651 20.2221 10.5604C22.1893 8.02898 21.8797 4.42787 19.3316 2.31001C16.7835 0.192157 13.4925 0.7984 11.4932 3.13581Z" stroke="#0D0D15" stroke-width="2" stroke-linecap="round" stroke-linejoin="round"></path>
  </symbol>
  <symbol fill="none" xmlns="http://www.w3.org/2000/svg" viewBox="0 0 25 24" id="linkedin">
    <path d="M20.3642 2.76904H4.63221C3.8786 2.76904 3.26923 3.364 3.26923 4.09957V19.8965C3.26923 20.632 3.8786 21.2306 4.63221 21.2306H20.3642C21.1178 21.2306 21.7308 20.632 21.7308 19.9001V4.09957C21.7308 3.364 21.1178 2.76904 20.3642 2.76904ZM8.74639 18.501H6.00601V9.68851H8.74639V18.501ZM7.3762 8.48779C6.49639 8.48779 5.78605 7.77746 5.78605 6.90126C5.78605 6.02505 6.49639 5.31472 7.3762 5.31472C8.2524 5.31472 8.96274 6.02505 8.96274 6.90126C8.96274 7.77385 8.2524 8.48779 7.3762 8.48779ZM19.0012 18.501H16.2644V14.2174C16.2644 13.1969 16.2464 11.8808 14.8401 11.8808C13.4159 11.8808 13.1995 12.995 13.1995 14.1452V18.501H10.4663V9.68851H13.0913V10.8928H13.1274C13.4916 10.2005 14.3858 9.46856 15.7163 9.46856C18.4892 9.46856 19.0012 11.2931 19.0012 13.6657V18.501Z" fill="#F5F8FB"></path>
  </symbol>
  <symbol fill="none" xmlns="http://www.w3.org/2000/svg" viewBox="0 0 24 24" id="mail">
    <path d="M2 7L10.1649 12.7154C10.8261 13.1783 11.1567 13.4097 11.5163 13.4993C11.8339 13.5785 12.1661 13.5785 12.4837 13.4993C12.8433 13.4097 13.1739 13.1783 13.8351 12.7154L22 7M6.8 20H17.2C18.8802 20 19.7202 20 20.362 19.673C20.9265 19.3854 21.3854 18.9265 21.673 18.362C22 17.7202 22 16.8802 22 15.2V8.8C22 7.11984 22 6.27976 21.673 5.63803C21.3854 5.07354 20.9265 4.6146 20.362 4.32698C19.7202 4 18.8802 4 17.2 4H6.8C5.11984 4 4.27976 4 3.63803 4.32698C3.07354 4.6146 2.6146 5.07354 2.32698 5.63803C2 6.27976 2 7.11984 2 8.8V15.2C2 16.8802 2 17.7202 2.32698 18.362C2.6146 18.9265 3.07354 19.3854 3.63803 19.673C4.27976 20 5.11984 20 6.8 20Z" stroke="#F5F8FB" stroke-width="2" stroke-linecap="round" stroke-linejoin="round"/>
  </symbol>
  <symbol fill="none" xmlns="http://www.w3.org/2000/svg" viewBox="0 0 24 24" id="mark">
    <path d="M12 22C13 17 20 16.4183 20 10C20 5.58172 16.4183 2 12 2C7.58172 2 4 5.58172 4 10C4 16.4183 11 17 12 22Z" stroke="#F5F8FB" stroke-width="2" stroke-linecap="round" stroke-linejoin="round"/>
    <path d="M12 13C13.6569 13 15 11.6569 15 10C15 8.34315 13.6569 7 12 7C10.3431 7 9 8.34315 9 10C9 11.6569 10.3431 13 12 13Z" stroke="#F5F8FB" stroke-width="2" stroke-linecap="round" stroke-linejoin="round"/>
  </symbol>
  <symbol fill="none" xmlns="http://www.w3.org/2000/svg" viewBox="0 0 24 24" id="phone">
    <path d="M8.38028 8.85323C9.07627 10.3028 10.0251 11.6615 11.2266 12.8631C12.4282 14.0646 13.7869 15.0134 15.2365 15.7094C15.3612 15.7693 15.4235 15.7992 15.5024 15.8222C15.7828 15.904 16.127 15.8453 16.3644 15.6752C16.4313 15.6274 16.4884 15.5702 16.6027 15.4559C16.9523 15.1063 17.1271 14.9315 17.3029 14.8172C17.9658 14.3862 18.8204 14.3862 19.4833 14.8172C19.6591 14.9315 19.8339 15.1063 20.1835 15.4559L20.3783 15.6508C20.9098 16.1822 21.1755 16.448 21.3198 16.7333C21.6069 17.3009 21.6069 17.9712 21.3198 18.5387C21.1755 18.8241 20.9098 19.0898 20.3783 19.6213L20.2207 19.7789C19.6911 20.3085 19.4263 20.5733 19.0662 20.7756C18.6667 21 18.0462 21.1614 17.588 21.16C17.1751 21.1588 16.8928 21.0787 16.3284 20.9185C13.295 20.0575 10.4326 18.433 8.04466 16.045C5.65668 13.6571 4.03221 10.7947 3.17124 7.76131C3.01103 7.19687 2.93092 6.91464 2.9297 6.5017C2.92833 6.04347 3.08969 5.42298 3.31411 5.02348C3.51636 4.66345 3.78117 4.39863 4.3108 3.86901L4.46843 3.71138C4.99987 3.17993 5.2656 2.91421 5.55098 2.76987C6.11854 2.4828 6.7888 2.4828 7.35636 2.76987C7.64174 2.91421 7.90747 3.17993 8.43891 3.71138L8.63378 3.90625C8.98338 4.25585 9.15819 4.43065 9.27247 4.60643C9.70347 5.26932 9.70347 6.1239 9.27247 6.78679C9.15819 6.96257 8.98338 7.13738 8.63378 7.48698C8.51947 7.60129 8.46231 7.65845 8.41447 7.72526C8.24446 7.96269 8.18576 8.30695 8.26748 8.5873C8.29048 8.6662 8.32041 8.72854 8.38028 8.85323Z" stroke="#F5F8FB" stroke-width="2" stroke-linecap="round" stroke-linejoin="round"/>
  </symbol>
  <symbol fill="none" xmlns="http://www.w3.org/2000/svg" viewBox="0 0 8 14" id="right-arrow">
    <path d="M1 13L7 7L1 1" stroke="#F8F7FF" stroke-width="2" stroke-linecap="round" stroke-linejoin="round"></path>
  </symbol>
  <symbol fill="none" xmlns="http://www.w3.org/2000/svg" viewBox="0 0 20 20" id="searching">
    <path d="M19 19L14.65 14.65M17 9C17 13.4183 13.4183 17 9 17C4.58172 17 1 13.4183 1 9C1 4.58172 4.58172 1 9 1C13.4183 1 17 4.58172 17 9Z" stroke="#F5F8FB" stroke-width="2" stroke-linecap="round" stroke-linejoin="round"></path>
  </symbol>
  <symbol fill="none" xmlns="http://www.w3.org/2000/svg" viewBox="0 0 22 25" id="small-logo">
    <g clip-path="url(#clip0_5562_2818)">
      <path d="M21.3791 13.6911V17.1863C21.3791 17.2266 21.3784 17.2669 21.376 17.3071C21.3752 17.315 21.3752 17.3237 21.3744 17.3316C21.3728 17.3553 21.3712 17.379 21.3689 17.4035C21.3665 17.4272 21.3641 17.4509 21.361 17.4746C21.3586 17.4975 21.3547 17.5204 21.3515 17.5425C21.346 17.5765 21.3404 17.6097 21.3333 17.6436C21.3294 17.665 21.3246 17.6855 21.3199 17.7068C21.3152 17.725 21.3104 17.7439 21.3057 17.7629C21.3017 17.7803 21.297 17.7969 21.2915 17.8142C21.2701 17.8909 21.2441 17.9667 21.2141 18.0409C21.2077 18.0567 21.2014 18.0733 21.1943 18.0891C21.1761 18.1326 21.1564 18.1752 21.1351 18.2171C21.1248 18.2384 21.1137 18.2589 21.1027 18.2795L21.1019 18.2787L17.1477 16.0781L10.9551 12.631L15.6122 10.4873L21.2954 13.6453L21.3791 13.6911Z" fill="url(#paint0_linear_5562_2818)"></path>
      <path d="M21.3082 7.16733L20.1028 8.09623L19.0357 9.77394L8.88965 4.12629L12.7451 1.41858L15.0752 2.76454H15.076L19.3461 5.22976L20.23 5.74002C20.7742 6.05439 21.1581 6.57255 21.3082 7.16733Z" fill="url(#paint1_linear_5562_2818)"></path>
      <path d="M15.0761 2.76504L0.407227 11.1686V7.72945C0.407227 6.90876 0.844821 6.15047 1.55492 5.74052L9.7452 1.0123C10.4553 0.602347 11.3305 0.602347 12.0414 1.0123L15.0761 2.76504Z" fill="#0265DC"></path>
      <path d="M21.3786 7.72929V8.9228L2.43011 19.6802L1.55492 19.1747C0.844821 18.7639 0.407227 18.0064 0.407227 17.1857V15.9946L19.347 5.2301L20.2309 5.74037C20.941 6.15031 21.3786 6.9086 21.3786 7.72929Z" fill="#0265DC"></path>
      <path d="M21.3796 13.5952V17.1852C21.3796 17.2255 21.3788 17.2658 21.3764 17.3061C21.3756 17.314 21.3756 17.3227 21.3748 17.3306C21.3733 17.3543 21.3717 17.378 21.3693 17.4024C21.3669 17.4261 21.3646 17.4498 21.3614 17.4735C21.359 17.4964 21.3551 17.5193 21.3519 17.5415C21.3464 17.5754 21.3409 17.6086 21.3338 17.6426C21.3298 17.6639 21.3251 17.6844 21.3203 17.7058C21.3156 17.7239 21.3109 17.7429 21.3061 17.7618C21.3022 17.7792 21.2974 17.7958 21.2919 17.8132C21.2706 17.8898 21.2445 17.9656 21.2145 18.0399C21.2082 18.0557 21.2019 18.0723 21.1947 18.0881C21.1766 18.1315 21.1568 18.1742 21.1355 18.216C21.1252 18.2373 21.1142 18.2579 21.1031 18.2784C21.0905 18.3013 21.0778 18.3242 21.0644 18.3464C21.0518 18.3693 21.0376 18.3914 21.0241 18.4135C20.9957 18.4569 20.9665 18.5004 20.9357 18.5422C20.9041 18.5849 20.8717 18.626 20.8385 18.6655C20.8211 18.686 20.8038 18.7057 20.7864 18.7247C20.769 18.7445 20.7508 18.7634 20.7327 18.7824C20.6963 18.8203 20.6584 18.8574 20.6189 18.8922C20.6039 18.9064 20.5881 18.9198 20.5723 18.9332C20.5628 18.9411 20.5534 18.949 20.5439 18.9569C20.5249 18.9735 20.5052 18.9893 20.4846 19.0043C20.4649 19.0201 20.4451 19.0351 20.4238 19.0493C20.3843 19.0786 20.3433 19.1062 20.3014 19.1323C20.2785 19.1465 20.2556 19.1607 20.2319 19.1741L12.0424 23.9024C11.3315 24.3123 10.4563 24.3123 9.74621 23.9024L6.75098 22.1733L17.1482 16.077L21.2959 13.6442L21.3796 13.5952Z" fill="#0265DC"></path>
      <path d="M4.52567 4.02576V20.8897L2.43011 19.6804L1.55492 19.1749C0.844821 18.7642 0.407227 18.0067 0.407227 17.186V7.72951C0.407227 6.90882 0.844821 6.15054 1.55492 5.74059L4.52567 4.02576Z" fill="#0265DC"></path>
    </g>
    <defs>
      <linearGradient id="paint0_linear_5562_2818" x1="20.7472" y1="16.2661" x2="12.335" y2="10.4999" gradientUnits="userSpaceOnUse">
        <stop stop-color="#0265DC"></stop>
        <stop offset="1" stop-color="#0265DC" stop-opacity="0"></stop>
      </linearGradient>
      <linearGradient id="paint1_linear_5562_2818" x1="19.3635" y1="8.28738" x2="11.7411" y2="3.35062" gradientUnits="userSpaceOnUse">
        <stop stop-color="#0265DC"></stop>
        <stop offset="1" stop-color="#0265DC" stop-opacity="0"></stop>
      </linearGradient>
      <clipPath id="clip0_5562_2818">
        <rect width="21.1846" height="23.5385" fill="white" transform="translate(0.407227 0.704834)"></rect>
      </clipPath>
    </defs>
  </symbol>
  <symbol fill="none" xmlns="http://www.w3.org/2000/svg" viewBox="0 0 16 17" id="stars">
    <path d="M8.66634 2.24308L9.82246 5.24899C10.0105 5.73781 10.1045 5.98222 10.2507 6.18781C10.3802 6.37001 10.5394 6.52921 10.7216 6.65877C10.9272 6.80495 11.1716 6.89896 11.6604 7.08696L14.6663 8.24308L11.6604 9.3992C11.1716 9.58721 10.9272 9.68121 10.7216 9.8274C10.5394 9.95696 10.3802 10.1162 10.2507 10.2984C10.1045 10.5039 10.0105 10.7484 9.82246 11.2372L8.66634 14.2431L7.51022 11.2372C7.32222 10.7484 7.22821 10.5039 7.08203 10.2984C6.95247 10.1162 6.79327 9.95696 6.61107 9.8274C6.40548 9.68121 6.16107 9.58721 5.67225 9.3992L2.66634 8.24308L5.67225 7.08696C6.16107 6.89896 6.40548 6.80495 6.61106 6.65877C6.79327 6.52921 6.95247 6.37001 7.08203 6.18781C7.22821 5.98222 7.32222 5.73781 7.51022 5.24899L8.66634 2.24308Z" fill="#F8D904"></path>
    <path d="M2.99967 14.9097V11.5764M2.99967 4.90975V1.57642M1.33301 3.24308H4.66634M1.33301 13.2431H4.66634M8.66634 2.24308L7.51022 5.24899C7.32222 5.73781 7.22821 5.98222 7.08203 6.18781C6.95247 6.37001 6.79327 6.52921 6.61107 6.65877C6.40548 6.80495 6.16107 6.89896 5.67225 7.08696L2.66634 8.24308L5.67225 9.3992C6.16107 9.58721 6.40548 9.68121 6.61107 9.8274C6.79327 9.95696 6.95247 10.1162 7.08203 10.2984C7.22821 10.5039 7.32222 10.7484 7.51022 11.2372L8.66634 14.2431L9.82246 11.2372C10.0105 10.7484 10.1045 10.5039 10.2507 10.2984C10.3802 10.1162 10.5394 9.95696 10.7216 9.8274C10.9272 9.68121 11.1716 9.58721 11.6604 9.3992L14.6663 8.24308L11.6604 7.08696C11.1716 6.89896 10.9272 6.80495 10.7216 6.65877C10.5394 6.52921 10.3802 6.37001 10.2507 6.18781C10.1045 5.98222 10.0105 5.73781 9.82246 5.24899L8.66634 2.24308Z" stroke="#F8D904" stroke-linecap="round" stroke-linejoin="round"></path>
  </symbol>
  <symbol fill="none" xmlns="http://www.w3.org/2000/svg" viewBox="0 0 25 24" id="telegram">
    <path d="M24.0468 2.42273C23.6374 2.11452 22.9944 2.07042 22.3295 2.30739H22.3285C21.6292 2.55649 2.53537 9.82768 1.75808 10.1247C1.61671 10.1684 0.381992 10.5774 0.509175 11.4885C0.622712 12.3099 1.61507 12.6501 1.73625 12.6893L6.5905 14.165C6.91255 15.1168 8.09977 18.6283 8.36233 19.3785C8.52608 19.8462 8.793 20.4607 9.2608 20.5871C9.67128 20.7277 10.0796 20.5993 10.3438 20.4151L13.3116 17.9712L18.1025 21.2884L18.2166 21.349C18.5419 21.4769 18.8536 21.5409 19.1511 21.5409C19.3809 21.5409 19.6014 21.5026 19.8121 21.426C20.5299 21.1643 20.817 20.5571 20.847 20.4883L24.4256 3.97399C24.644 3.09199 24.3405 2.64323 24.0468 2.42273ZM10.8716 14.7553L9.23405 18.6322L7.5965 13.786L20.1511 5.54754L10.8716 14.7553Z" fill="#F5F8FB"></path>
  </symbol>
  <symbol fill="none" xmlns="http://www.w3.org/2000/svg" viewBox="0 0 24 24" id="tiktok">
    <path d="M19.033 2.76904H4.96709C3.75522 2.76904 2.76929 3.75498 2.76929 4.96685V19.0328C2.76929 20.2446 3.75522 21.2306 4.96709 21.2306H19.033C20.2449 21.2306 21.2308 20.2446 21.2308 19.0328V4.96685C21.2308 3.75498 20.2449 2.76904 19.033 2.76904ZM17.2774 10.8231C17.1776 10.8323 17.0765 10.8385 16.9741 10.8385C15.8212 10.8385 14.808 10.2455 14.2185 9.34926C14.2185 11.7005 14.2185 14.3756 14.2185 14.4205C14.2185 16.4904 12.5403 18.1686 10.4704 18.1686C8.4005 18.1686 6.72225 16.4904 6.72225 14.4205C6.72225 12.3506 8.4005 10.6723 10.4704 10.6723C10.5486 10.6723 10.6251 10.6794 10.702 10.6842V12.5312C10.6251 12.522 10.5495 12.5079 10.4704 12.5079C9.41368 12.5079 8.55742 13.3642 8.55742 14.4209C8.55742 15.4776 9.41368 16.3339 10.4704 16.3339C11.5271 16.3339 12.4603 15.5014 12.4603 14.4446C12.4603 14.4029 12.4787 5.8319 12.4787 5.8319H14.244C14.4102 7.41036 15.6845 8.65608 17.2774 8.77036V10.8231Z" fill="#F5F8FB"></path>
  </symbol>
  <symbol fill="none" xmlns="http://www.w3.org/2000/svg" viewBox="0 0 25 24" id="twitter">
    <path d="M20.144 6.18005C21.0011 5.64387 21.6424 4.7996 21.9482 3.80486C21.1428 4.30492 20.2616 4.65717 19.3428 4.84639C18.0688 3.43621 16.0504 3.09303 14.4153 4.00862C12.7803 4.92421 11.9334 6.87189 12.3478 8.76335C9.04886 8.59003 5.97529 6.95936 3.89195 4.2771C2.80469 6.2395 3.36031 8.74812 5.16167 10.01C4.51028 9.98806 3.87333 9.80351 3.30394 9.4717C3.30394 9.48971 3.30394 9.50772 3.30394 9.52573C3.30432 11.5699 4.6811 13.3307 6.59584 13.7358C5.99164 13.9079 5.35787 13.9332 4.74289 13.8099C5.28138 15.558 6.82106 16.7556 8.57595 16.7914C7.1225 17.9851 5.32753 18.6325 3.47986 18.6293C3.15237 18.6298 2.82513 18.6101 2.49985 18.5703C4.37612 19.8319 6.55986 20.5016 8.79012 20.4992C11.893 20.5215 14.8749 19.2415 17.0689 16.9455C19.2629 14.6494 20.4858 11.529 20.4643 8.28211C20.4643 8.09601 20.4601 7.91092 20.4519 7.72683C21.2554 7.11913 21.9489 6.3663 22.4998 5.50372C21.7512 5.85095 20.9571 6.07893 20.144 6.18005Z" fill="#F5F8FB"></path>
  </symbol>
  <symbol fill="none" xmlns="http://www.w3.org/2000/svg" viewBox="0 0 16 16" id="user">
    <path d="M8 10C5.88661 10 4.0072 11.0204 2.81066 12.604C2.55313 12.9448 2.42437 13.1152 2.42858 13.3455C2.43184 13.5235 2.54357 13.7479 2.68357 13.8578C2.86479 14 3.11591 14 3.61815 14H12.3818C12.8841 14 13.1352 14 13.3164 13.8578C13.4564 13.7479 13.5682 13.5235 13.5714 13.3455C13.5756 13.1152 13.4469 12.9448 13.1893 12.604C11.9928 11.0204 10.1134 10 8 10Z" stroke="#0265DC" stroke-width="2" stroke-linecap="round" stroke-linejoin="round"></path>
    <path d="M8 8C9.65685 8 11 6.65685 11 5C11 3.34315 9.65685 2 8 2C6.34314 2 5 3.34315 5 5C5 6.65685 6.34314 8 8 8Z" stroke="#0265DC" stroke-width="2" stroke-linecap="round" stroke-linejoin="round"></path>
  </symbol>
  <symbol fill="none" xmlns="http://www.w3.org/2000/svg" viewBox="0 0 20 20" id="wallet">
    <path d="M14.5 12H14.51M1 3V17C1 18.1046 1.89543 19 3 19H17C18.1046 19 19 18.1046 19 17V7C19 5.89543 18.1046 5 17 5L3 5C1.89543 5 1 4.10457 1 3ZM1 3C1 1.89543 1.89543 1 3 1H15M15 12C15 12.2761 14.7761 12.5 14.5 12.5C14.2239 12.5 14 12.2761 14 12C14 11.7239 14.2239 11.5 14.5 11.5C14.7761 11.5 15 11.7239 15 12Z" stroke="#F5F8FB" stroke-width="2" stroke-linecap="round" stroke-linejoin="round"></path>
  </symbol>
  <symbol fill="none" xmlns="http://www.w3.org/2000/svg" viewBox="0 0 24 24" id="youtube">
    <path d="M23.2522 5.92188C23.0311 4.75354 21.9775 3.90271 20.7548 3.63708C18.9252 3.26562 15.539 3 11.8753 3C8.21384 3 4.77347 3.26562 2.94164 3.63708C1.72115 3.90271 0.665406 4.69959 0.444286 5.92188C0.220998 7.25 -0.00012207 9.10938 -0.00012207 11.5C-0.00012207 13.8906 0.220998 15.75 0.498483 17.0781C0.72177 18.2465 1.77534 19.0973 2.99584 19.3629C4.93823 19.7344 8.26804 20 11.9317 20C15.5954 20 18.9252 19.7344 20.8676 19.3629C22.088 19.0973 23.1416 18.3004 23.3649 17.0781C23.586 15.75 23.8635 13.8367 23.9199 11.5C23.8071 9.10938 23.5297 7.25 23.2522 5.92188ZM8.87937 15.2188V7.78125L15.6496 11.5L8.87937 15.2188Z" fill="#F5F8FB"></path>
  </symbol>
</svg>