<svg width="25" height="24" viewBox="0 0 25 24" fill="none" xmlns="http://www.w3.org/2000/svg">
<path d="M24.0468 2.42273C23.6374 2.11452 22.9944 2.07042 22.3295 2.30739H22.3285C21.6292 2.55649 2.53537 9.82768 1.75808 10.1247C1.61671 10.1684 0.381992 10.5774 0.509175 11.4885C0.622712 12.3099 1.61507 12.6501 1.73625 12.6893L6.5905 14.165C6.91255 15.1168 8.09977 18.6283 8.36233 19.3785C8.52608 19.8462 8.793 20.4607 9.2608 20.5871C9.67128 20.7277 10.0796 20.5993 10.3438 20.4151L13.3116 17.9712L18.1025 21.2884L18.2166 21.349C18.5419 21.4769 18.8536 21.5409 19.1511 21.5409C19.3809 21.5409 19.6014 21.5026 19.8121 21.426C20.5299 21.1643 20.817 20.5571 20.847 20.4883L24.4256 3.97399C24.644 3.09199 24.3405 2.64323 24.0468 2.42273ZM10.8716 14.7553L9.23405 18.6322L7.5965 13.786L20.1511 5.54754L10.8716 14.7553Z" fill="#F5F8FB"/>
</svg>
