<svg width="25" height="24" viewBox="0 0 25 24" fill="none" xmlns="http://www.w3.org/2000/svg">
<path d="M20.144 6.18005C21.0011 5.64387 21.6424 4.7996 21.9482 3.80486C21.1428 4.30492 20.2616 4.65717 19.3428 4.84639C18.0688 3.43621 16.0504 3.09303 14.4153 4.00862C12.7803 4.92421 11.9334 6.87189 12.3478 8.76335C9.04886 8.59003 5.97529 6.95936 3.89195 4.2771C2.80469 6.2395 3.36031 8.74812 5.16167 10.01C4.51028 9.98806 3.87333 9.80351 3.30394 9.4717C3.30394 9.48971 3.30394 9.50772 3.30394 9.52573C3.30432 11.5699 4.6811 13.3307 6.59584 13.7358C5.99164 13.9079 5.35787 13.9332 4.74289 13.8099C5.28138 15.558 6.82106 16.7556 8.57595 16.7914C7.1225 17.9851 5.32753 18.6325 3.47986 18.6293C3.15237 18.6298 2.82513 18.6101 2.49985 18.5703C4.37612 19.8319 6.55986 20.5016 8.79012 20.4992C11.893 20.5215 14.8749 19.2415 17.0689 16.9455C19.2629 14.6494 20.4858 11.529 20.4643 8.28211C20.4643 8.09601 20.4601 7.91092 20.4519 7.72683C21.2554 7.11913 21.9489 6.3663 22.4998 5.50372C21.7512 5.85095 20.9571 6.07893 20.144 6.18005Z" fill="#F5F8FB"/>
</svg>
