<svg width="25" height="24" viewBox="0 0 25 24" fill="none" xmlns="http://www.w3.org/2000/svg">
<path d="M2.50119 12.0612C2.50235 17.0108 6.07959 21.2253 10.9382 22.001V14.9689H8.40119V12.0612H10.9412V9.84761C10.8276 8.79873 11.1837 7.75339 11.9128 6.99509C12.6419 6.23679 13.6685 5.84413 14.7142 5.9236C15.4647 5.9358 16.2134 6.00306 16.9542 6.12484V8.59897H15.6902C15.255 8.54163 14.8175 8.68623 14.501 8.99204C14.1844 9.29786 14.023 9.73179 14.0622 10.1716V12.0612H16.8332L16.3902 14.97H14.0622V22.001C19.3167 21.1655 23.0013 16.3371 22.4467 11.0138C21.8921 5.69055 17.2925 1.73591 11.98 2.01487C6.66755 2.29382 2.50203 6.70871 2.50119 12.0612Z" fill="#F5F8FB"/>
</svg>
