<svg width="22" height="25" viewBox="0 0 22 25" fill="none" xmlns="http://www.w3.org/2000/svg">
<g clip-path="url(#clip0_5562_2818)">
<path d="M21.3791 13.6911V17.1863C21.3791 17.2266 21.3784 17.2669 21.376 17.3071C21.3752 17.315 21.3752 17.3237 21.3744 17.3316C21.3728 17.3553 21.3712 17.379 21.3689 17.4035C21.3665 17.4272 21.3641 17.4509 21.361 17.4746C21.3586 17.4975 21.3547 17.5204 21.3515 17.5425C21.346 17.5765 21.3404 17.6097 21.3333 17.6436C21.3294 17.665 21.3246 17.6855 21.3199 17.7068C21.3152 17.725 21.3104 17.7439 21.3057 17.7629C21.3017 17.7803 21.297 17.7969 21.2915 17.8142C21.2701 17.8909 21.2441 17.9667 21.2141 18.0409C21.2077 18.0567 21.2014 18.0733 21.1943 18.0891C21.1761 18.1326 21.1564 18.1752 21.1351 18.2171C21.1248 18.2384 21.1137 18.2589 21.1027 18.2795L21.1019 18.2787L17.1477 16.0781L10.9551 12.631L15.6122 10.4873L21.2954 13.6453L21.3791 13.6911Z" fill="url(#paint0_linear_5562_2818)"/>
<path d="M21.3082 7.16733L20.1028 8.09623L19.0357 9.77394L8.88965 4.12629L12.7451 1.41858L15.0752 2.76454H15.076L19.3461 5.22976L20.23 5.74002C20.7742 6.05439 21.1581 6.57255 21.3082 7.16733Z" fill="url(#paint1_linear_5562_2818)"/>
<path d="M15.0761 2.76504L0.407227 11.1686V7.72945C0.407227 6.90876 0.844821 6.15047 1.55492 5.74052L9.7452 1.0123C10.4553 0.602347 11.3305 0.602347 12.0414 1.0123L15.0761 2.76504Z" fill="#0265DC"/>
<path d="M21.3786 7.72929V8.9228L2.43011 19.6802L1.55492 19.1747C0.844821 18.7639 0.407227 18.0064 0.407227 17.1857V15.9946L19.347 5.2301L20.2309 5.74037C20.941 6.15031 21.3786 6.9086 21.3786 7.72929Z" fill="#0265DC"/>
<path d="M21.3796 13.5952V17.1852C21.3796 17.2255 21.3788 17.2658 21.3764 17.3061C21.3756 17.314 21.3756 17.3227 21.3748 17.3306C21.3733 17.3543 21.3717 17.378 21.3693 17.4024C21.3669 17.4261 21.3646 17.4498 21.3614 17.4735C21.359 17.4964 21.3551 17.5193 21.3519 17.5415C21.3464 17.5754 21.3409 17.6086 21.3338 17.6426C21.3298 17.6639 21.3251 17.6844 21.3203 17.7058C21.3156 17.7239 21.3109 17.7429 21.3061 17.7618C21.3022 17.7792 21.2974 17.7958 21.2919 17.8132C21.2706 17.8898 21.2445 17.9656 21.2145 18.0399C21.2082 18.0557 21.2019 18.0723 21.1947 18.0881C21.1766 18.1315 21.1568 18.1742 21.1355 18.216C21.1252 18.2373 21.1142 18.2579 21.1031 18.2784C21.0905 18.3013 21.0778 18.3242 21.0644 18.3464C21.0518 18.3693 21.0376 18.3914 21.0241 18.4135C20.9957 18.4569 20.9665 18.5004 20.9357 18.5422C20.9041 18.5849 20.8717 18.626 20.8385 18.6655C20.8211 18.686 20.8038 18.7057 20.7864 18.7247C20.769 18.7445 20.7508 18.7634 20.7327 18.7824C20.6963 18.8203 20.6584 18.8574 20.6189 18.8922C20.6039 18.9064 20.5881 18.9198 20.5723 18.9332C20.5628 18.9411 20.5534 18.949 20.5439 18.9569C20.5249 18.9735 20.5052 18.9893 20.4846 19.0043C20.4649 19.0201 20.4451 19.0351 20.4238 19.0493C20.3843 19.0786 20.3433 19.1062 20.3014 19.1323C20.2785 19.1465 20.2556 19.1607 20.2319 19.1741L12.0424 23.9024C11.3315 24.3123 10.4563 24.3123 9.74621 23.9024L6.75098 22.1733L17.1482 16.077L21.2959 13.6442L21.3796 13.5952Z" fill="#0265DC"/>
<path d="M4.52567 4.02576V20.8897L2.43011 19.6804L1.55492 19.1749C0.844821 18.7642 0.407227 18.0067 0.407227 17.186V7.72951C0.407227 6.90882 0.844821 6.15054 1.55492 5.74059L4.52567 4.02576Z" fill="#0265DC"/>
</g>
<defs>
<linearGradient id="paint0_linear_5562_2818" x1="20.7472" y1="16.2661" x2="12.335" y2="10.4999" gradientUnits="userSpaceOnUse">
<stop stop-color="#0265DC"/>
<stop offset="1" stop-color="#0265DC" stop-opacity="0"/>
</linearGradient>
<linearGradient id="paint1_linear_5562_2818" x1="19.3635" y1="8.28738" x2="11.7411" y2="3.35062" gradientUnits="userSpaceOnUse">
<stop stop-color="#0265DC"/>
<stop offset="1" stop-color="#0265DC" stop-opacity="0"/>
</linearGradient>
<clipPath id="clip0_5562_2818">
<rect width="21.1846" height="23.5385" fill="white" transform="translate(0.407227 0.704834)"/>
</clipPath>
</defs>
</svg>
